<svg id="Camada_1" data-name="Camada 1" xmlns="http://www.w3.org/2000/svg" viewBox="0 0 239 140"><defs><style>.cls-1{fill:#c4161c;}.cls-1,.cls-2{fill-rule:evenodd;}.cls-2{fill:#231f20;}</style></defs><title>Artboard 3</title><path class="cls-1" d="M55.19.62a54.17,54.17,0,0,0,0,108.33Z"/><path class="cls-2" d="M55.19,33.12a37.92,37.92,0,1,1,0,75.83Z"/><path class="cls-2" d="M106,108.24a65.88,65.88,0,0,0,9,.49c7.29,0,13.18-1.84,16.91-5.46s5.94-9,5.94-16.48v-.05c0-9.19-3.67-20-21.29-20a65.92,65.92,0,0,0-10.53.87v40.68Zm6.27-36.14a24.64,24.64,0,0,1,4.86-.43c8.91,0,14.1,5.18,14.1,15.23,0,11.4-5.62,16.86-14.91,16.8a30.44,30.44,0,0,1-4-.21V72.1Zm57.65,30.09a18.42,18.42,0,0,1-7.46,1.46c-8.54,0-13.83-5.67-13.83-15.83,0-10.75,5.94-16.15,13.94-16.15a17,17,0,0,1,7.24,1.51l1.35-5.13c-1.14-.6-4-1.63-8.81-1.63C150.9,66.42,142,74.1,142,88.14c0,13.19,7.72,20.81,19.23,20.81a23.82,23.82,0,0,0,9.73-1.73l-1.08-5Zm31.17-23.61h-6.27V97a6.38,6.38,0,0,1-6.21,6.76c-4.11,0-5.57-3.41-5.57-8.54V78.58h-6.26V96.27c0,9.49,4.48,12.68,9.62,12.68a10.37,10.37,0,0,0,9-4.92h.17l.32,4.32h5.51c-.11-2.38-.27-5.18-.27-8.52V78.58ZM215.41,65h-6.27v43.33h6.27V65Zm9.24,13.56h-4.22v4.7h4.22v15.4c0,3.89.7,6.37,2.21,8a7.77,7.77,0,0,0,5.89,2.27,13.58,13.58,0,0,0,4.86-.71l-.21-4.81a9,9,0,0,1-2.76.38c-2.64,0-3.78-1.78-3.78-5.45V83.28h7.08v-4.7h-7.08V71.23l-6.21,2Z"/><path class="cls-2" d="M.69,138.65a33.84,33.84,0,0,0,4.49.25c3.64,0,6.59-.92,8.45-2.73s3-4.49,3-8.24v0c0-4.59-1.83-10-10.64-10a33.72,33.72,0,0,0-5.27.43v20.34Zm3.14-18.07a12.4,12.4,0,0,1,2.43-.21c4.46,0,7.05,2.59,7.05,7.61,0,5.7-2.81,8.43-7.46,8.4a15.21,15.21,0,0,1-2-.1v-15.7Zm19.23-.86a1.75,1.75,0,0,0-1.81-1.84,1.83,1.83,0,1,0,0,3.65,1.75,1.75,0,0,0,1.84-1.81Zm-.27,4.1H19.66v14.89h3.13V123.82Zm11.51-.24a4.07,4.07,0,0,0-.79-.08,4.27,4.27,0,0,0-3.86,3h-.11l-.11-2.73H26.71c.08,1.38.1,2.81.1,4.54v10.35H30v-7.89c0-2.59,1.32-4.32,3.43-4.32a5.08,5.08,0,0,1,.92.08v-3ZM47.1,135.9a9.39,9.39,0,0,1-3.76.7c-2.35,0-4.43-1.27-4.51-4.62h9.46a10,10,0,0,0,.08-1.32c0-3.68-1.68-7.16-5.86-7.16s-6.7,3.54-6.7,8S38.4,139,42.88,139a11.56,11.56,0,0,0,4.73-.89l-.51-2.21Zm-8.24-6.16c.16-1.73,1.13-4,3.43-4s3.13,2.22,3.11,4ZM52,123.82h-2.1v2.35H52v7.7c0,1.95.35,3.19,1.11,4a3.86,3.86,0,0,0,3,1.13,6.83,6.83,0,0,0,2.43-.35l-.11-2.4a4.53,4.53,0,0,1-1.38.19c-1.32,0-1.89-.89-1.89-2.73v-7.54h3.54v-2.35H55.12v-3.67l-3.11,1v2.7Zm15.43-.32c-3.95,0-7,2.84-7,7.86,0,4.81,3,7.64,6.81,7.64,3.35,0,7-2.29,7-7.86,0-4.56-2.67-7.64-6.75-7.64ZM71,131.23c0,3-1.41,5.42-3.68,5.42s-3.67-2.45-3.67-5.37c0-2.57,1-5.43,3.7-5.43S71,128.77,71,131.23Zm13.8-7.65a4,4,0,0,0-.79-.08,4.28,4.28,0,0,0-3.86,3H80l-.1-2.73H77.19c.08,1.38.11,2.81.11,4.54v10.35h3.13v-7.89c0-2.59,1.32-4.32,3.43-4.32a5,5,0,0,1,.92.08v-3Zm5.83-3.86a1.82,1.82,0,1,0-1.83,1.81,1.75,1.75,0,0,0,1.83-1.81Zm-.27,4.1H87.21v14.89h3.13V123.82Zm14.45,5.73c0-3.16-1.21-6.05-5.59-6.05a9.36,9.36,0,0,0-4.81,1.24l.65,2.08a6.89,6.89,0,0,1,3.62-1c3,0,3,2.21,3,3.32-5.11,0-8.32,1.83-8.32,5.54A4.2,4.2,0,0,0,97.72,139a5,5,0,0,0,4.16-2H102l.21,1.73H105a20.17,20.17,0,0,1-.22-3.54v-5.62Zm-3.05,4.13a3,3,0,0,1-3.11,3,2.12,2.12,0,0,1-2.18-2.38c0-2.65,2.83-3.1,5.29-3.1v2.45ZM127.21,117h-3.13v8.46H124a4.34,4.34,0,0,0-3.94-2c-3.32,0-6.21,2.86-6.21,7.91,0,4.6,2.56,7.59,5.94,7.59a4.93,4.93,0,0,0,4.51-2.62h.08l.16,2.33h2.76c0-1-.11-2.62-.11-4V117Zm-3.13,15.56c0,2.08-1.33,3.87-3.35,3.87-2.38,0-3.67-2.25-3.67-5.16s1.32-5.32,3.72-5.32c1.76,0,3.3,1.43,3.3,3.86v2.75Zm17.5,3.3a9.37,9.37,0,0,1-3.75.7c-2.35,0-4.43-1.27-4.51-4.62h9.45a10,10,0,0,0,.08-1.32c0-3.68-1.67-7.16-5.86-7.16s-6.7,3.54-6.7,8,2.59,7.53,7.08,7.53a11.55,11.55,0,0,0,4.72-.89l-.51-2.21Zm-8.24-6.16c.17-1.73,1.14-4,3.43-4s3.14,2.22,3.11,4Zm31.58,5.89a9.26,9.26,0,0,1-3.73.73c-4.27,0-6.91-2.84-6.91-7.92,0-5.37,3-8.07,7-8.07a8.58,8.58,0,0,1,3.62.75l.68-2.56a10,10,0,0,0-4.4-.81c-5.73,0-10.16,3.83-10.16,10.85,0,6.6,3.86,10.4,9.62,10.4a11.94,11.94,0,0,0,4.86-.86l-.54-2.51Zm15.58-11.81h-3.13V133a3.18,3.18,0,0,1-3.11,3.38c-2,0-2.78-1.7-2.78-4.27v-8.32h-3.13v8.85c0,4.74,2.24,6.33,4.81,6.33a5.19,5.19,0,0,0,4.48-2.45h.08l.16,2.16h2.76c-.06-1.19-.14-2.59-.14-4.26V123.82Zm7.16-6.78h-3.13v21.67h3.13V117Zm4.62,6.78h-2.11v2.35h2.11v7.7c0,1.95.35,3.19,1.11,4a3.85,3.85,0,0,0,2.94,1.13,6.83,6.83,0,0,0,2.43-.35l-.11-2.4a4.41,4.41,0,0,1-1.37.19c-1.33,0-1.89-.89-1.89-2.73v-7.54h3.53v-2.35h-3.53v-3.67l-3.11,1v2.7Zm21.45,0h-3.14V133a3.18,3.18,0,0,1-3.1,3.38c-2.06,0-2.79-1.7-2.79-4.27v-8.32h-3.13v8.85c0,4.74,2.24,6.33,4.81,6.33a5.19,5.19,0,0,0,4.48-2.45h.08l.17,2.16h2.75c-.05-1.19-.13-2.59-.13-4.26V123.82Zm11.5-.24a3.89,3.89,0,0,0-.78-.08,4.27,4.27,0,0,0-3.86,3h-.11l-.11-2.73h-2.73c.08,1.38.11,2.81.11,4.54v10.35h3.13v-7.89c0-2.59,1.33-4.32,3.43-4.32a4.92,4.92,0,0,1,.92.08v-3Zm12.86,6c0-3.16-1.22-6.05-5.59-6.05a9.33,9.33,0,0,0-4.81,1.24l.65,2.08a6.83,6.83,0,0,1,3.62-1c3,0,3,2.21,3,3.32-5.11,0-8.32,1.83-8.32,5.54A4.2,4.2,0,0,0,231,139a5,5,0,0,0,4.16-2h.08l.22,1.73h2.84a20.17,20.17,0,0,1-.22-3.54v-5.62ZM235,133.68a3,3,0,0,1-3.11,3,2.13,2.13,0,0,1-2.19-2.38c0-2.65,2.84-3.1,5.3-3.1Z"/></svg>